<svg width="24" height="24" viewBox="0 0 24 24" fill="none" xmlns="http://www.w3.org/2000/svg">
<g clip-path="url(#clip0_481_1277)">
<path d="M6.53086 5.53659L4.54233 3.54806C4.26769 3.27342 3.8227 3.27342 3.54806 3.54806C3.27342 3.8227 3.27342 4.26769 3.54806 4.54233L5.53659 6.53086C5.81123 6.8055 6.25622 6.8055 6.53086 6.53086C6.8055 6.25622 6.8055 5.81123 6.53086 5.53659ZM3.5625 11.2969H0.703125C0.314484 11.2969 0 11.6114 0 12C0 12.3886 0.314484 12.7031 0.703125 12.7031H3.5625C3.95114 12.7031 4.26562 12.3886 4.26562 12C4.26562 11.6114 3.95114 11.2969 3.5625 11.2969ZM23.2969 11.2969H20.4375C20.0489 11.2969 19.7344 11.6114 19.7344 12C19.7344 12.3886 20.0489 12.7031 20.4375 12.7031H23.2969C23.6855 12.7031 24 12.3886 24 12C24 11.6114 23.6855 11.2969 23.2969 11.2969ZM20.4519 3.54806C20.1773 3.27342 19.7323 3.27342 19.4577 3.54806L17.4691 5.53659C17.1945 5.81123 17.1945 6.25622 17.4691 6.53086C17.7438 6.8055 18.1888 6.8055 18.4634 6.53086L20.4519 4.54233C20.7266 4.26769 20.7266 3.82275 20.4519 3.54806ZM12 0C11.6114 0 11.2969 0.314484 11.2969 0.703125V3.5625C11.2969 3.95114 11.6114 4.26562 12 4.26562C12.3886 4.26562 12.7031 3.95114 12.7031 3.5625V0.703125C12.7031 0.314484 12.3886 0 12 0ZM15.9375 7.03589C14.4047 5.82652 12.4219 5.39062 10.4813 5.85469C8.23125 6.375 6.41723 8.16089 5.86875 10.3969C5.32031 12.6468 5.95312 14.925 7.57027 16.514C8.14687 17.0906 8.48438 17.9953 8.48438 18.9234V19.0781C8.48438 19.4718 8.7937 19.7812 9.1875 19.7812H14.8125C15.2063 19.7812 15.5156 19.4718 15.5156 19.0781V18.9234C15.5156 18.0093 15.8672 17.0765 16.4859 16.4718C17.6672 15.2765 18.3281 13.6875 18.3281 12C18.3281 10.0594 17.4562 8.24527 15.9375 7.03589ZM12 9.89062C10.9392 9.89062 10.167 10.5943 9.96478 11.4088C9.87277 11.7793 9.50002 12.0157 9.11264 11.9224C8.73637 11.829 8.50631 11.4473 8.59973 11.071C8.94811 9.66473 10.269 8.48438 12 8.48438C12.3886 8.48438 12.7031 8.79886 12.7031 9.1875C12.7031 9.57614 12.3886 9.89062 12 9.89062ZM9.1875 21.1875V21.8906C9.1875 23.0538 10.1337 24 11.2969 24H12.7031C13.8663 24 14.8125 23.0538 14.8125 21.8906V21.1875H9.1875Z" fill="#12D1AF"/>
</g>
<defs>
<clipPath id="clip0_481_1277">
<rect width="24" height="24" fill="white"/>
</clipPath>
</defs>
</svg>
