<svg width="21" height="22" viewBox="0 0 21 22" fill="none" xmlns="http://www.w3.org/2000/svg">
<path d="M20.2146 13.2099L18.361 11.7605C18.3845 11.5369 18.4047 11.2756 18.4047 10.9992C18.4047 10.7227 18.3853 10.4614 18.361 10.2379L20.2163 8.78756C20.5608 8.51531 20.6549 8.03214 20.4356 7.62967L18.508 4.29457C18.3021 3.91814 17.8509 3.72486 17.393 3.89376L15.2057 4.77184C14.7864 4.46934 14.3469 4.21391 13.8924 4.00972L13.5596 1.68973C13.505 1.24941 13.1218 0.916656 12.6689 0.916656H8.80367C8.35075 0.916656 7.96845 1.24941 7.91464 1.68299L7.58106 4.01141C7.14075 4.20973 6.70803 4.46181 6.27023 4.77353L4.07711 3.89293C3.66617 3.73412 3.17461 3.91223 2.97042 4.28701L1.04033 7.62629C0.812627 8.01115 0.906725 8.5111 1.25881 8.79008L3.11245 10.2396C3.08303 10.5227 3.06877 10.7689 3.06877 11C3.06877 11.2311 3.08307 11.4773 3.11245 11.7613L1.25712 13.2116C0.912594 13.4847 0.819323 13.9679 1.03864 14.3695L2.96625 17.7046C3.17213 18.0802 3.61914 18.2751 4.08128 18.1054L6.26854 17.2273C6.687 17.529 7.12645 17.7844 7.58106 17.9894L7.91382 20.3086C7.96841 20.7506 8.35075 21.0833 8.8045 21.0833H12.6698C13.1227 21.0833 13.5059 20.7506 13.5596 20.317L13.8932 17.9894C14.3335 17.7903 14.7654 17.539 15.204 17.2264L17.3972 18.107C17.5021 18.1482 17.6138 18.1692 17.7266 18.1692C18.0526 18.1692 18.3525 17.9911 18.5038 17.7138L20.4398 14.3611C20.6549 13.9678 20.5608 13.4847 20.2146 13.2099ZM10.7363 14.3611C8.88264 14.3611 7.37518 12.8536 7.37518 11C7.37518 9.14635 8.88264 7.63889 10.7363 7.63889C12.5899 7.63889 14.0974 9.14635 14.0974 11C14.0974 12.8536 12.5899 14.3611 10.7363 14.3611Z" fill="#CCCCCC"/>
</svg>
